<?xml version="1.0" encoding="UTF-8"?>
<svg id="Layer_1" xmlns="http://www.w3.org/2000/svg" version="1.1" viewBox="0 0 841.89 595.28">
  <!-- Generator: Adobe Illustrator 30.0.0, SVG Export Plug-In . SVG Version: 2.1.1 Build 123)  -->
  <defs>
    <style>
      .st0 {
        font-size: 51.56px;
      }

      .st1 {
        font-size: 34.36px;
      }

      .st2 {
        font-family: Impact, Impact;
      }

      .st3 {
        fill: none;
        stroke: #000;
        stroke-miterlimit: 10;
        stroke-width: 20px;
      }

      .st4 {
        display: none;
        fill: #231f20;
        font-family: AgletSans-Ultra, 'Aglet Sans';
        font-size: 46.73px;
      }
    </style>
  </defs>
  <text class="st4" transform="translate(323.57 405.38)"><tspan x="0" y="0">TEAM </tspan><tspan x="137.1" y="0">24</tspan></text>
  <path class="st3" d="M55.3,301.37"/>
  <path class="st3" d="M249.36,301.37"/>
  <text class="st2" transform="translate(322.79 438.63)"><tspan class="st0"><tspan x="0" y="0">T E A M </tspan><tspan x="144.67" y="0">24</tspan></tspan><tspan class="st1"><tspan x="11.77" y="41.24">S E C U R I T Y</tspan></tspan></text>
  <g>
    <path d="M322.78,505.08l.47-.54c.45.46,1.07.77,1.71.77.81,0,1.3-.41,1.3-1.01,0-.63-.45-.83-1.03-1.09l-.89-.39c-.58-.25-1.25-.68-1.25-1.6s.82-1.65,1.95-1.65c.73,0,1.39.32,1.83.77l-.42.51c-.38-.36-.83-.58-1.41-.58-.7,0-1.16.35-1.16.91,0,.6.54.82,1.03,1.03l.88.38c.72.31,1.28.74,1.28,1.66,0,.98-.81,1.76-2.11,1.76-.87,0-1.63-.35-2.17-.92Z"/>
    <path d="M328.06,499.85c0-.3.23-.5.54-.5s.54.2.54.5-.23.5-.54.5-.54-.21-.54-.5ZM328.2,501.3h.78v4.59h-.78v-4.59Z"/>
    <path d="M330.18,503.6c0-1.53,1.03-2.42,2.21-2.42.6,0,1.02.25,1.34.54l-.4.51c-.27-.24-.55-.41-.91-.41-.83,0-1.44.72-1.44,1.77s.58,1.76,1.42,1.76c.42,0,.79-.2,1.08-.46l.34.52c-.41.37-.93.58-1.48.58-1.22,0-2.15-.88-2.15-2.4Z"/>
    <path d="M334.83,499.16h.78v1.84l-.03.94c.43-.41.89-.76,1.52-.76.97,0,1.4.62,1.4,1.8v2.91h-.78v-2.81c0-.86-.26-1.22-.87-1.22-.47,0-.79.24-1.25.71v3.33h-.78v-6.73Z"/>
    <path d="M339.62,503.6c0-1.49,1.01-2.42,2.06-2.42,1.17,0,1.83.84,1.83,2.16,0,.16-.01.33-.04.44h-3.09c.06.97.65,1.6,1.53,1.6.44,0,.8-.14,1.14-.37l.28.51c-.4.26-.89.48-1.52.48-1.22,0-2.2-.89-2.2-2.4ZM342.83,503.22c0-.92-.41-1.42-1.13-1.42-.65,0-1.22.52-1.32,1.42h2.45Z"/>
    <path d="M344.64,501.3h.64l.07.84h.03c.32-.58.79-.95,1.31-.95.2,0,.35.03.49.09l-.15.68c-.16-.05-.26-.08-.45-.08-.39,0-.85.28-1.16,1.06v2.95h-.78v-4.59Z"/>
    <path d="M347.92,499.16h.78v1.84l-.03.94c.43-.41.89-.76,1.52-.76.97,0,1.4.62,1.4,1.8v2.91h-.78v-2.81c0-.86-.26-1.22-.87-1.22-.47,0-.79.24-1.25.71v3.33h-.78v-6.73Z"/>
    <path d="M352.71,503.6c0-1.49,1.01-2.42,2.06-2.42,1.17,0,1.83.84,1.83,2.16,0,.16-.01.33-.04.44h-3.09c.06.97.65,1.6,1.53,1.6.44,0,.8-.14,1.14-.37l.28.51c-.4.26-.89.48-1.52.48-1.22,0-2.2-.89-2.2-2.4ZM355.92,503.22c0-.92-.41-1.42-1.13-1.42-.65,0-1.22.52-1.32,1.42h2.45Z"/>
    <path d="M357.6,499.85c0-.3.23-.5.54-.5s.54.2.54.5-.23.5-.54.5-.54-.21-.54-.5ZM357.74,501.3h.78v4.59h-.78v-4.59Z"/>
    <path d="M360.2,504.47v-2.54h-.68v-.59l.72-.04.09-1.29h.65v1.29h1.24v.63h-1.24v2.55c0,.56.18.89.71.89.16,0,.37-.06.52-.12l.15.59c-.26.09-.56.17-.85.17-.98,0-1.31-.62-1.31-1.53Z"/>
    <path d="M364.67,504.29c0-1.84,2.83-2.14,2.83-3.47,0-.36-.16-.68-.59-.68-.46,0-.76.39-.76.9,0,1.16,1.27,2.7,2.46,3.58.49.37.96.62,1.36.74l-.21.65c-.49-.14-1.05-.42-1.62-.86-1.36-1.05-2.67-2.78-2.67-4.09,0-.83.57-1.47,1.43-1.47.77,0,1.22.51,1.22,1.23,0,1.59-2.71,2.07-2.71,3.44,0,.69.54,1.14,1.22,1.14.52,0,1.01-.3,1.42-.73.51-.55.88-1.26,1.11-2.11h.72c-.27.93-.69,1.78-1.29,2.48-.52.58-1.18.98-2.05.98-1.12,0-1.89-.72-1.89-1.72Z"/>
    <path d="M372.85,499.69h1.84c1.26,0,2.13.43,2.13,1.52,0,.61-.33,1.16-.91,1.35v.04c.74.15,1.26.64,1.26,1.48,0,1.22-.96,1.81-2.35,1.81h-1.98v-6.2ZM374.56,502.33c1.05,0,1.49-.39,1.49-1.02,0-.72-.5-1-1.46-1h-.95v2.01h.92ZM374.72,505.26c1.06,0,1.69-.38,1.69-1.22,0-.76-.6-1.11-1.69-1.11h-1.08v2.33h1.08Z"/>
    <path d="M377.99,503.6c0-1.49,1.01-2.42,2.06-2.42,1.17,0,1.83.84,1.83,2.16,0,.16-.01.33-.04.44h-3.09c.06.97.65,1.6,1.53,1.6.44,0,.8-.14,1.14-.37l.28.51c-.4.26-.89.48-1.52.48-1.22,0-2.2-.89-2.2-2.4ZM381.2,503.22c0-.92-.41-1.42-1.13-1.42-.65,0-1.22.52-1.32,1.42h2.45Z"/>
    <path d="M382.51,501.3h.79l.68,2.65c.1.44.19.85.27,1.28h.04c.1-.43.2-.85.31-1.28l.71-2.65h.76l.72,2.65c.11.44.21.85.32,1.28h.04c.1-.43.19-.84.28-1.28l.67-2.65h.74l-1.23,4.59h-.95l-.66-2.47c-.11-.43-.2-.86-.31-1.32h-.04c-.1.47-.19.9-.31,1.33l-.64,2.46h-.91l-1.28-4.59Z"/>
    <path d="M389.46,504.7c0-1,.86-1.5,2.82-1.71,0-.59-.2-1.16-.95-1.16-.53,0-1.01.25-1.37.49l-.3-.53c.42-.28,1.07-.6,1.8-.6,1.12,0,1.59.75,1.59,1.89v2.82h-.64l-.07-.55h-.03c-.44.36-.95.66-1.52.66-.77,0-1.35-.48-1.35-1.31ZM392.28,504.77v-1.28c-1.54.19-2.06.56-2.06,1.15,0,.52.35.73.8.73s.81-.22,1.25-.61Z"/>
    <path d="M394.16,503.6c0-1.53,1.03-2.42,2.21-2.42.6,0,1.02.25,1.34.54l-.4.51c-.27-.24-.55-.41-.91-.41-.83,0-1.44.72-1.44,1.77s.58,1.76,1.42,1.76c.42,0,.79-.2,1.08-.46l.34.52c-.41.37-.93.58-1.48.58-1.22,0-2.15-.88-2.15-2.4Z"/>
    <path d="M398.8,499.16h.78v1.84l-.03.94c.43-.41.89-.76,1.52-.76.97,0,1.4.62,1.4,1.8v2.91h-.78v-2.81c0-.86-.26-1.22-.87-1.22-.47,0-.79.24-1.25.71v3.33h-.78v-6.73Z"/>
    <path d="M403.88,504.21v-2.91h.78v2.81c0,.85.26,1.22.87,1.22.47,0,.79-.23,1.23-.77v-3.26h.78v4.59h-.64l-.07-.72h-.03c-.43.5-.88.83-1.51.83-.97,0-1.4-.62-1.4-1.8Z"/>
    <path d="M409.07,501.3h.64l.07.66h.03c.44-.43.91-.78,1.54-.78.97,0,1.4.62,1.4,1.8v2.91h-.78v-2.81c0-.86-.26-1.22-.87-1.22-.47,0-.79.24-1.25.71v3.33h-.78v-4.59Z"/>
    <path d="M413.89,506.77c0-.39.25-.76.67-1.04v-.04c-.23-.15-.41-.39-.41-.75,0-.38.27-.69.51-.85v-.04c-.3-.24-.59-.69-.59-1.23,0-1,.79-1.64,1.72-1.64.25,0,.48.05.65.11h1.6v.6h-.94c.22.21.37.55.37.95,0,.98-.74,1.59-1.68,1.59-.22,0-.48-.06-.68-.16-.17.14-.29.29-.29.54,0,.29.19.5.8.5h.89c1.07,0,1.6.33,1.6,1.1,0,.85-.9,1.59-2.32,1.59-1.12,0-1.9-.44-1.9-1.23ZM417.35,506.53c0-.42-.32-.57-.93-.57h-.79c-.18,0-.39-.02-.6-.07-.33.23-.47.51-.47.77,0,.49.5.8,1.33.8s1.45-.46,1.45-.94ZM416.76,502.82c0-.67-.44-1.07-.98-1.07s-.98.4-.98,1.07.45,1.09.98,1.09.98-.42.98-1.09Z"/>
    <path d="M418.49,505.37l.38-.51c.4.32.8.54,1.36.54.6,0,.9-.32.9-.71,0-.47-.54-.68-1.05-.87-.64-.24-1.37-.55-1.37-1.33,0-.73.59-1.3,1.58-1.3.57,0,1.07.23,1.43.52l-.37.5c-.32-.23-.64-.41-1.05-.41-.58,0-.85.31-.85.66,0,.44.5.6,1.02.8.66.25,1.4.52,1.4,1.39,0,.75-.59,1.37-1.67,1.37-.65,0-1.28-.28-1.71-.64Z"/>
    <path d="M422.62,503.6c0-1.49.94-2.42,1.99-2.42.53,0,.88.2,1.29.53l-.03-.79v-1.77h.78v6.73h-.64l-.07-.54h-.03c-.36.36-.85.66-1.39.66-1.15,0-1.89-.87-1.89-2.4ZM425.87,504.72v-2.41c-.39-.35-.74-.48-1.12-.48-.73,0-1.32.71-1.32,1.75,0,1.1.46,1.76,1.26,1.76.42,0,.79-.21,1.18-.63Z"/>
    <path d="M428.05,499.85c0-.3.23-.5.54-.5s.54.2.54.5-.24.5-.54.5-.54-.21-.54-.5ZM428.19,501.3h.78v4.59h-.78v-4.59Z"/>
    <path d="M430.17,503.6c0-1.49,1.01-2.42,2.06-2.42,1.17,0,1.83.84,1.83,2.16,0,.16-.01.33-.04.44h-3.09c.06.97.65,1.6,1.53,1.6.44,0,.8-.14,1.14-.37l.28.51c-.4.26-.89.48-1.52.48-1.22,0-2.2-.89-2.2-2.4ZM433.38,503.22c0-.92-.41-1.42-1.13-1.42-.65,0-1.22.52-1.32,1.42h2.45Z"/>
    <path d="M435.2,501.3h.64l.07.66h.03c.44-.43.91-.78,1.54-.78.97,0,1.4.62,1.4,1.8v2.91h-.78v-2.81c0-.86-.26-1.22-.87-1.22-.47,0-.79.24-1.25.71v3.33h-.78v-4.59Z"/>
    <path d="M439.85,505.37l.38-.51c.4.32.8.54,1.35.54.6,0,.9-.32.9-.71,0-.47-.54-.68-1.05-.87-.64-.24-1.37-.55-1.37-1.33,0-.73.59-1.3,1.58-1.3.57,0,1.07.23,1.43.52l-.37.5c-.32-.23-.64-.41-1.05-.41-.58,0-.85.31-.85.66,0,.44.5.6,1.02.8.66.25,1.4.52,1.4,1.39,0,.75-.59,1.37-1.67,1.37-.65,0-1.28-.28-1.71-.64Z"/>
    <path d="M444.26,504.47v-2.54h-.68v-.59l.72-.04.09-1.29h.65v1.29h1.24v.63h-1.24v2.55c0,.56.18.89.71.89.16,0,.37-.06.52-.12l.15.59c-.26.09-.57.17-.85.17-.98,0-1.31-.62-1.31-1.53Z"/>
    <path d="M448.82,503.22h2.17v.6h-2.17v-.6Z"/>
    <path d="M454.04,499.69h1.94c1.26,0,2.17.45,2.17,1.75s-.91,1.83-2.17,1.83h-1.15v2.62h-.79v-6.2ZM455.87,502.63c.96,0,1.5-.39,1.5-1.19s-.53-1.11-1.5-1.11h-1.04v2.3h1.04ZM455.82,503.05l.62-.41,1.89,3.24h-.89l-1.62-2.84Z"/>
    <path d="M459.27,504.21v-2.91h.78v2.81c0,.85.26,1.22.87,1.22.47,0,.79-.23,1.23-.77v-3.26h.78v4.59h-.64l-.07-.72h-.03c-.43.5-.88.83-1.51.83-.97,0-1.4-.62-1.4-1.8Z"/>
    <path d="M464.47,501.3h.64l.07.66h.03c.44-.43.91-.78,1.54-.78.97,0,1.4.62,1.4,1.8v2.91h-.78v-2.81c0-.86-.26-1.22-.87-1.22-.47,0-.79.24-1.25.71v3.33h-.78v-4.59Z"/>
    <path d="M469.31,503.6c0-1.49.94-2.42,1.99-2.42.53,0,.88.2,1.29.53l-.03-.79v-1.77h.78v6.73h-.64l-.07-.54h-.03c-.36.36-.85.66-1.39.66-1.15,0-1.89-.87-1.89-2.4ZM472.55,504.72v-2.41c-.39-.35-.74-.48-1.12-.48-.73,0-1.32.71-1.32,1.75,0,1.1.46,1.76,1.26,1.76.42,0,.79-.21,1.18-.63Z"/>
    <path d="M476.7,504.21v-2.91h.78v2.81c0,.85.26,1.22.87,1.22.47,0,.79-.23,1.23-.77v-3.26h.78v4.59h-.64l-.07-.72h-.03c-.43.5-.88.83-1.51.83-.97,0-1.4-.62-1.4-1.8Z"/>
    <path d="M481.9,501.3h.64l.07.67h.03c.4-.43.88-.78,1.43-.78.7,0,1.08.34,1.27.88.48-.52.96-.88,1.51-.88.94,0,1.4.62,1.4,1.8v2.91h-.78v-2.81c0-.86-.27-1.22-.85-1.22-.36,0-.73.23-1.15.71v3.33h-.78v-2.81c0-.86-.27-1.22-.85-1.22-.34,0-.73.23-1.15.71v3.33h-.78v-4.59Z"/>
    <path d="M491.28,503.6c0-1.49.94-2.42,1.99-2.42.53,0,.88.2,1.29.53l-.03-.79v-1.77h.78v6.73h-.64l-.07-.54h-.03c-.36.36-.85.66-1.39.66-1.15,0-1.89-.87-1.89-2.4ZM494.52,504.72v-2.41c-.39-.35-.74-.48-1.12-.48-.73,0-1.32.71-1.32,1.75,0,1.1.46,1.76,1.26,1.76.42,0,.79-.21,1.18-.63Z"/>
    <path d="M496.71,499.85c0-.3.23-.5.54-.5s.54.2.54.5-.24.5-.54.5-.54-.21-.54-.5ZM496.85,501.3h.78v4.59h-.78v-4.59Z"/>
    <path d="M498.83,503.6c0-1.49,1.01-2.42,2.06-2.42,1.17,0,1.83.84,1.83,2.16,0,.16-.01.33-.04.44h-3.09c.06.97.65,1.6,1.53,1.6.44,0,.8-.14,1.14-.37l.28.51c-.4.26-.89.48-1.52.48-1.22,0-2.2-.89-2.2-2.4ZM502.04,503.22c0-.92-.41-1.42-1.13-1.42-.65,0-1.22.52-1.32,1.42h2.45Z"/>
    <path d="M505.79,503.33v-3.64h.79v3.66c0,1.49.63,1.96,1.44,1.96s1.47-.47,1.47-1.96v-3.66h.76v3.64c0,1.99-.96,2.67-2.23,2.67s-2.23-.68-2.23-2.67Z"/>
    <path d="M511.83,499.16h.78v1.84l-.03.94c.43-.41.89-.76,1.52-.76.97,0,1.4.62,1.4,1.8v2.91h-.78v-2.81c0-.86-.26-1.22-.87-1.22-.47,0-.79.24-1.25.71v3.33h-.78v-6.73Z"/>
    <path d="M516.97,501.3h.64l.07.84h.03c.32-.58.79-.95,1.31-.95.2,0,.35.03.49.09l-.15.68c-.16-.05-.26-.08-.45-.08-.39,0-.85.28-1.16,1.06v2.95h-.78v-4.59Z"/>
  </g>
  <g>
    <polygon points="518.58 351.37 499.74 340.76 499.7 339.56 499.47 250.51 479.76 239.35 479.89 283.55 440.92 261.55 440.22 217.11 420.69 205.15 420.81 249.75 342.31 296.63 342.38 318.32 420.6 273.24 479.95 306.46 480.02 328.56 420.59 296 323.63 351.93 323.44 284 401.13 239.58 401.06 216.66 323.37 261.08 323.31 239.39 420.27 183.02 518.26 238.83 518.58 351.37"/>
    <path d="M499.45,365.97l-157.01.09c0-.26,0-4.24,0-4.24l78.5-42.97,78.51,42.81v4.31Z"/>
    <path d="M420.95,123.46c-46,0-83.5,37.03-84.28,82.83l21.21-12.26c6.38-29.47,32.83-50.82,63.07-50.82s56.69,21.35,63.06,50.82l21.2,12.08c-.87-45.72-38.33-82.65-84.26-82.65Z"/>
  </g>
</svg>