<?xml version="1.0" encoding="UTF-8"?>
<svg id="Layer_1" xmlns="http://www.w3.org/2000/svg" version="1.1" viewBox="0 0 841.89 595.28">
  <!-- Generator: Adobe Illustrator 30.0.0, SVG Export Plug-In . SVG Version: 2.1.1 Build 123)  -->
  <defs>
    <style>
      .st0 {
        fill: #053492;
      }
    </style>
  </defs>
  <polygon class="st0" points="518.58 404.24 499.74 393.64 499.7 392.43 499.47 303.39 479.76 292.23 479.89 336.42 440.92 314.43 440.22 269.99 420.69 258.02 420.81 302.63 342.31 349.5 342.38 371.19 420.6 326.12 479.95 359.34 480.02 381.44 420.59 348.87 323.63 404.8 323.44 336.87 401.13 292.45 401.06 269.54 323.37 313.96 323.31 292.27 420.27 235.9 518.26 291.71 518.58 404.24"/>
  <path class="st0" d="M499.45,418.84l-157.01.09c0-.26,0-4.24,0-4.24l78.5-42.97,78.51,42.81v4.31Z"/>
  <path class="st0" d="M420.95,176.34c-46,0-83.5,37.03-84.28,82.83l21.21-12.26c6.38-29.47,32.83-50.82,63.07-50.82s56.69,21.35,63.06,50.82l21.2,12.08c-.87-45.72-38.33-82.65-84.26-82.65Z"/>
</svg>